Patient4_TMGait_0pt6_02_right_27_EMG.mot
version=1
nRows=23
nColumns=33
inDegrees=no
endheader
time	1LAddLong	2LGlutMax	3LGlutMed	4LIliopsoas	5LSemiMemb	6LBicFemLong	7LRecFem	8LVastMed	9LVastLat	10LGasMed	11LTibAnt	12lTibPost	13LPeroneusLong	14LSol	15LExtDigLong	16LFlexDigLong	17RAddLong	18RGlutMax	19RGlutMed	20RIliopsoas	21RSemiMemb	22RBicFemLong	23RRecFem	24RVastMed	25RVastLat	26RGasMed	27RTibAnt	28RTibPost	29RPeroneusLong	30RSol	31RExtDigLong	32RFlexDigLong
33.708	0.00473	-0.078278	0.021362	0.003357	-0.012207	-0.085907	0.12985	0.016479	-0.011139	0.038757	0.01358	-0.005646	0.007477	0.037384	0.024261	0.01236	0.002136	-0.1738	0.32776	0.38162	0.008087	0.015259	0.009155	-0.084686	0.012665	-0.010223	0.018768	-0.001984	-0.011597	-0.01709	-0.004272	-0.010223
33.709	0.001068	-0.090485	-0.010834	0.004272	-0.01297	-0.055389	0.12756	0.019836	-0.016022	0.090942	0.00412	-0.00885	-0.008087	0.19852	0.029297	0.005646	0.013275	-0.18265	0.32105	0.34882	0.03067	0.011902	-0.018768	-0.10422	0.008545	-0.00946	0.014801	-0.005493	0.003052	-0.026245	-0.002899	-0.0177
33.71	0.016174	-0.10483	-0.000458	0.009766	-0.02121	-0.004425	0.033722	0.020142	0.005341	-0.068207	0.006714	0.097809	-0.003357	0.23941	-0.002747	0.028687	0.011292	-0.16357	0.47012	0.23239	0.041809	0.025024	0.027008	-0.10468	0.006561	-0.011139	0.027466	-0.00412	-0.003204	-0.017395	-0.007324	-0.012512
33.711	0.021057	-0.056458	0.058136	0.009308	0.0177	0.008698	-0.018616	0.013733	0.073242	-0.10696	0.010376	0.31204	0.11719	0.43457	0.002136	0.010223	0.010071	-0.14999	0.14236	0.15976	0.042572	0.028839	0.014496	-0.13428	-0.00061	-0.00412	0.024567	-0.009613	-0.008545	-0.014038	-0.003967	-0.018921
33.712	0.020599	-0.053253	-0.010986	0.051575	0.069733	-0.003815	0.030823	-0.007935	0.12543	-0.17227	-0.02655	0.13641	0.22858	0.75958	0.029297	0.003204	-0.006714	-0.16754	-0.55191	0.023193	-0.015869	0.06012	0.030212	-0.10162	0.002594	-0.001526	0.048523	-0.008545	-0.052948	-0.051727	-0.00351	-0.014038
33.713	0.022278	-0.032196	-0.037231	0.00473	0.091858	-0.001831	0.074768	-0.011597	0.087128	-0.095215	-0.018005	-0.26627	0.15884	0.65567	0.018158	-0.006561	-0.002441	-0.091095	-0.70557	-0.11261	-0.052948	0.04303	-0.042572	-0.081177	0.024719	-0.00473	0.050354	-0.001831	-0.10544	-0.045776	-0.003052	-0.003052
33.714	0.016022	0.003815	0.039825	-0.006561	0.053864	-0.041046	0.063019	-0.008392	-0.007935	0.033722	0.003357	0.28839	0.091248	-0.14328	-0.016937	0.000305	-0.008545	-0.059509	-0.22644	-0.22217	-0.030212	0.02594	0.001984	-0.095978	0.038605	-0.002289	0.031738	-0.004425	-0.1152	-0.057068	0.001984	-0.00351
33.715	0.013428	-0.019989	0.14297	0.001373	0.033569	-0.10315	0.044098	-0.007935	-0.066071	0.23743	0.001831	-0.14053	0.049744	-0.60913	-0.025635	-0.002747	-0.009003	-0.112	0.014496	-0.20416	-0.053253	0.014191	-0.046082	-0.087738	0.028534	-0.014496	0.028992	-0.00412	-0.18295	-0.045624	-0.002594	-0.002747
33.716	0.003967	-0.080414	0.059052	0.010376	0.037079	-0.17166	0.075836	-0.000916	-0.037689	0.25162	0.00824	0.057373	-0.014648	-0.66284	-0.039215	-0.016174	-0.005341	-0.1947	0.08667	-0.098114	-0.063782	0.006256	-0.023041	-0.097504	0.012817	-0.011749	0.021667	-0.004272	-0.019379	-0.015564	-0.003357	-0.002289
33.717	0.006866	-0.079346	0.016479	0.007935	0.041504	-0.17731	0.082397	-0.001526	-0.022736	0.19775	0.002747	0.1561	-0.050049	-0.24399	-0.059967	0.001831	0.007935	-0.17654	0.60791	-0.027924	-0.1149	0.008392	-0.015564	-0.12573	0.027161	-0.013275	0.023956	-0.008087	0.10452	-0.023804	-0.003662	-0.001526
33.718	0.014343	-0.050201	-0.026703	0.010529	0.036316	-0.034485	0.096588	-0.007629	-0.020447	0.18555	0.005798	-0.089417	-0.059509	0.31204	-0.044098	0.021973	-0.003052	-0.19928	0.27298	-0.08255	-0.12543	0.024261	0.002441	-0.071564	0.027313	-0.022583	0.012207	-0.007019	0.12955	-0.01297	0.001221	0.001373
33.719	0.001373	-0.000763	-0.000458	0.002441	0.029907	0.28275	0.10757	-0.008545	-0.00946	0.17471	0.007324	-0.17456	-0.05722	0.18997	-0.00885	0.019989	0.003662	-0.14725	-0.068207	-0.041504	-0.046997	0.022736	-0.010986	-0.095978	0.029907	-0.018158	0.052338	-0.005951	0.10544	-0.02533	0.000458	0.011749
33.72	0.00351	-0.050964	0.073547	0.009308	0.031586	0.27542	0.12924	-0.017395	0.002747	0.11566	0.00885	0.003662	-0.061493	0.21927	-0.020752	-0.005798	-0.008698	-0.14801	-0.29846	0.021362	0.168	0.016022	-0.007019	-0.049286	0.029755	-0.015106	0.068665	-0.001678	0.14771	-0.04364	-0.003662	0.002441
33.721	0.018005	-0.047607	-0.031738	-0.002594	0.022736	0.12283	0.1358	0.03418	0.013275	0.055847	0.008392	-0.003815	0.004883	0.13718	0.007935	-0.016022	0.006256	-0.16129	-0.16495	0.12253	0.19501	0.001831	0.013275	-0.088959	0.019684	-0.012207	-0.007782	-0.007782	0.23804	-0.042419	-0.005646	0.002747
33.722	0.008087	-0.06073	-0.075836	0.011139	0.014496	0.053101	0.1297	-0.010071	0.018921	-0.016327	0.002594	-0.054321	0.02594	-0.43625	0.005493	-0.016327	0.049744	-0.14984	-0.20813	0.15747	0.092773	-0.016785	-0.001373	-0.071716	0.028992	-0.014343	-0.075836	-0.004272	0.002441	-0.056	-0.001678	0.005341
33.723	0.009308	-0.077057	-0.079803	-0.001526	0.009308	0.039978	0.0737	0.015259	0.01358	-0.090637	-0.020905	-0.053558	-0.061493	-1.03	-0.004272	-0.012512	0.078278	-0.084229	-0.24139	0.054779	-0.036621	0.006104	-0.007324	-0.11337	0.010071	-0.011444	-0.22858	-0.006714	0.085297	-0.072784	0.000763	0
33.724	0.005798	-0.062714	-0.053101	-0.001831	0.016174	0.030823	0.074463	-0.001068	-0.003662	-0.15427	0.000458	-0.049896	-0.067291	-0.78308	-0.000153	-0.002899	0.10834	-0.033264	0.060883	-0.005188	-0.08316	0.000305	0.018158	-0.11734	0.010834	-0.017548	-0.13092	-0.001068	0.1239	-0.079193	0.000458	-0.000305
33.725	0.002289	-0.059204	-0.05249	0.005798	0.011444	-0.032043	0.10483	0.002747	-0.026703	0.098877	0.011444	-0.042419	-0.013733	-0.47699	0.004578	0.021057	0.092163	-0.064697	0.27039	0.016327	-0.087891	-0.02533	-0.036926	-0.16357	0.005035	-0.016022	0.08316	-0.004425	-0.22995	-0.10819	-0.002899	-0.006409
33.726	0.002289	-0.086823	-0.063934	0.022278	0.014954	-0.14923	0.12039	0.001678	-0.032806	0.24216	0.028381	-0.032196	-0.007935	0.00351	0.020599	0.011597	0.056458	-0.070496	0.086365	0.074005	-0.065308	0.0177	-0.044708	-0.079651	0.015869	-0.014496	0.045319	-0.00351	-0.41168	-0.11383	-0.001678	-0.004578
33.727	0.013885	-0.054321	-0.054779	0.002441	0.020752	-0.043793	0.10437	-0.005188	-0.027313	0.041809	-0.003815	-0.027771	0.000916	0.1709	-0.001373	0.00061	-0.019073	-0.042725	-0.28748	0.10757	-0.10834	0.10101	-0.048676	-0.032196	0.018616	-0.020752	0.063171	-0.003204	-0.08255	-0.051727	-0.002136	-0.004272
33.728	0.004883	-0.022888	-0.041046	-0.002747	0.033569	-0.006104	0.092926	0.007324	-0.024567	-0.066223	-0.002747	-0.025635	-0.009003	0.13306	-0.01358	-0.000916	-0.070343	-0.035248	-0.56625	0.067902	-0.024414	0.092773	-0.04364	0.019226	0.026855	-0.026398	0.040741	-0.003204	0.06546	0.049286	-0.001221	0.001068
33.729	0.005035	-0.000916	-0.011902	0.010986	0.026093	-0.000458	0.085449	0.002289	-0.001373	0.060425	-0.01236	-0.007782	-0.049133	0.047302	-0.032043	-0.004425	-0.04776	0.009613	-0.54794	0.019531	0.063019	0.02655	-0.023651	0.003204	0.023346	-0.028381	0.11414	-0.009308	0.054474	0.062714	0.007172	-0.007477
33.73	0.001221	0.011139	-0.007324	0.000305	0.025787	0.028381	0.12268	0.006561	0.015411	0.12619	-0.039978	0.005493	-0.05661	0.044556	-0.006866	-0.006561	-0.032959	-0.006714	-0.45548	-0.021057	0.067902	0.005493	-0.024872	-0.005035	0.013428	-0.033417	0.36591	-0.005493	0.010681	0.023499	-0.003052	-0.007324
